<svg width="103" height="20" viewBox="0 0 103 20" fill="none" xmlns="http://www.w3.org/2000/svg">
<path fill-rule="evenodd" clip-rule="evenodd" d="M14.5544 12.0837C13.7626 13.8094 12.0205 15.0087 9.99757 15.0087C7.22929 15.0087 4.98496 12.7648 4.98496 9.99675C4.98496 7.22892 7.22929 4.98522 9.99757 4.98522C11.6422 4.98522 13.1022 5.77752 14.0158 7.00146L17.5597 3.45808C15.7266 1.34041 13.0184 0.000244141 9.99757 0.000244141C4.47624 0.000244141 0 4.47632 0 9.99719C0 15.5178 4.47624 19.993 9.99757 19.993C13.3889 19.993 16.3855 18.3042 18.1934 15.722L14.5544 12.0837Z" fill="#181818"/>
<path fill-rule="evenodd" clip-rule="evenodd" d="M49.0874 15.0083C46.3191 15.0083 44.075 12.7644 44.075 9.99633C44.075 7.22871 46.3191 4.9848 49.0874 4.9848C51.8555 4.9848 54.0998 7.22871 54.0998 9.99633C54.0998 12.7644 51.8555 15.0083 49.0874 15.0083M49.0874 0C43.5661 0 39.0898 4.47607 39.0898 9.99694C39.0898 15.5178 43.5661 19.993 49.0874 19.993C54.6088 19.993 59.0846 15.5178 59.0846 9.99694C59.0846 4.47607 54.6088 0 49.0874 0" fill="#181818"/>
<path fill-rule="evenodd" clip-rule="evenodd" d="M32.0916 0V11.2461C32.0916 13.3133 30.4097 14.995 28.3426 14.995C26.2753 14.995 24.5936 13.3133 24.5936 11.2461V4.99782L19.595 0V11.296H19.5956C19.6226 16.0961 23.5357 19.993 28.3426 19.993C33.1493 19.993 37.0628 16.0961 37.0896 11.296H37.0902V4.99825L32.0916 0Z" fill="#181818"/>
<path fill-rule="evenodd" clip-rule="evenodd" d="M81.0789 19.9931H76.0802V11.2643L71.0816 16.063L66.0829 11.2643V19.9931H61.084V0.231934L71.0816 10.2289L81.0789 0.231934V19.9931Z" fill="#181818"/>
<path fill-rule="evenodd" clip-rule="evenodd" d="M96.7845 19.9998L92.3886 11.1698L87.9546 19.9998H82.3784L92.3886 0.193115L102.386 19.9998H96.7845Z" fill="#181818"/>
</svg>
