<svg width="24" height="23" viewBox="0 0 24 23" fill="none" xmlns="http://www.w3.org/2000/svg">
<path fill-rule="evenodd" clip-rule="evenodd" d="M4.87318 0.793736C4.40175 0.302662 3.81247 0.0571289 3.10532 0.0571289C2.39818 0.0571289 1.79907 0.302662 1.308 0.793736C0.816927 1.28481 0.571394 1.88391 0.571394 2.59106C0.571394 3.2982 0.816927 3.88748 1.308 4.35891C1.79907 4.83035 2.39818 5.06606 3.10532 5.06606C3.81247 5.06606 4.40175 4.83035 4.87318 4.35891C5.34461 3.88748 5.58032 3.2982 5.58032 2.59106C5.58032 1.88391 5.34461 1.28481 4.87318 0.793736ZM5.58022 22.6857H0.571289V7.6H5.58022V22.6857ZM23.1999 22.6857H18.1909V14.2C18.1516 13.5321 17.8472 12.9625 17.2775 12.4911C16.7079 12.0196 16.0695 11.7839 15.3624 11.7839C14.6552 11.7839 14.115 12.0196 13.7418 12.4911C13.3686 12.9625 13.1624 13.5321 13.1231 14.2V22.6857H8.11415V7.6H13.1231V10.1339C13.5945 9.42678 14.2624 8.87679 15.1266 8.48393C15.9909 8.09107 16.7963 7.89464 17.5427 7.89464C19.1534 7.93393 20.4891 8.49374 21.5499 9.57411C22.6106 10.6545 23.1606 11.9803 23.1999 13.5518V22.6857Z" fill="#181818"/>
</svg>
