<svg width="49" height="49" viewBox="0 0 49 49" fill="none" xmlns="http://www.w3.org/2000/svg">
<path d="M24.4995 3.0625C20.0339 3.06777 15.7527 4.84406 12.595 8.00174C9.43734 11.1594 7.66105 15.4406 7.65578 19.9062C7.65043 23.5556 8.84247 27.1059 11.049 30.0125C11.049 30.0125 11.5084 30.6173 11.5834 30.7046L24.4995 45.9375L37.4217 30.697C37.4891 30.6158 37.95 30.0125 37.95 30.0125L37.9516 30.0079C40.157 27.1025 41.3485 23.5539 41.3433 19.9062C41.338 15.4406 39.5617 11.1594 36.404 8.00174C33.2464 4.84406 28.9652 3.06777 24.4995 3.0625ZM24.4995 26.0312C23.2881 26.0312 22.1039 25.672 21.0967 24.999C20.0894 24.326 19.3044 23.3694 18.8408 22.2502C18.3772 21.131 18.2559 19.8995 18.4922 18.7113C18.7286 17.5232 19.3119 16.4318 20.1685 15.5752C21.0251 14.7186 22.1165 14.1353 23.3046 13.8989C24.4927 13.6626 25.7243 13.7839 26.8435 14.2475C27.9627 14.7111 28.9193 15.4961 29.5923 16.5034C30.2653 17.5106 30.6245 18.6948 30.6245 19.9062C30.6225 21.5301 29.9765 23.0868 28.8283 24.235C27.6801 25.3833 26.1234 26.0292 24.4995 26.0312Z" fill="#62E4E2"/>
</svg>
